<?xml version="1.0" standalone="no"?>
<!DOCTYPE svg PUBLIC "-//W3C//DTD SVG 20010904//EN"
 "http://www.w3.org/TR/2001/REC-SVG-20010904/DTD/svg10.dtd">
<svg version="1.0" xmlns="http://www.w3.org/2000/svg"
 width="540.000000pt" height="540.000000pt" viewBox="0 0 540.000000 540.000000"
 preserveAspectRatio="xMidYMid meet">
<metadata>
Created by potrace 1.14, written by Peter Selinger 2001-2017
</metadata>
<g transform="translate(0.000000,540.000000) scale(0.100000,-0.100000)"
fill="#000000" stroke="none">
<path d="M745 5369 c-314 -41 -569 -249 -664 -540 -12 -38 -18 -61 -29 -119
-9 -46 -9 -3944 0 -3990 19 -97 31 -135 74 -224 89 -182 275 -343 464 -400
135 -42 129 -41 2135 -40 1062 1 1941 5 1955 8 14 4 41 9 60 12 19 3 43 10 53
15 9 5 17 7 17 5 0 -12 157 67 214 108 83 59 172 156 224 243 23 39 42 75 42
78 0 4 6 21 14 38 12 29 21 59 41 137 4 14 8 79 10 145 2 66 5 138 5 160 1 22
1 45 0 50 -1 6 -1 42 -1 80 0 39 0 111 0 160 0 50 0 122 0 160 0 39 0 111 0
160 0 50 0 122 0 160 0 39 0 111 0 160 0 50 0 122 0 160 0 39 0 111 0 160 0
50 0 122 0 160 0 39 0 111 0 160 0 50 0 122 0 160 0 39 0 111 0 160 0 50 0
122 0 160 0 39 0 111 0 160 0 50 0 122 0 160 0 39 0 111 0 160 0 50 0 122 0
160 0 39 0 111 0 160 0 50 0 122 0 160 0 39 0 111 0 160 0 50 0 122 0 160 2
328 -2 377 -44 501 -68 204 -220 372 -418 465 -34 16 -98 38 -142 50 l-80 22
-1940 1 c-1067 1 -1962 -2 -1990 -5z"/>
</g>
</svg>
