<?xml version="1.0" encoding="utf-8"?>
<!-- Generator: Adobe Illustrator 25.2.1, SVG Export Plug-In . SVG Version: 6.00 Build 0)  -->
<svg version="1.1" id="Capa_1" xmlns="http://www.w3.org/2000/svg" xmlns:xlink="http://www.w3.org/1999/xlink" x="0px" y="0px"
	 viewBox="0 0 204 68" style="enable-background:new 0 0 204 68;" xml:space="preserve">
<style type="text/css">
	.st0{fill:#FFFFFF;}
	.st1{fill:#F08B1D;}
	.st2{fill:#92C82D;}
	.st3{fill:#33BFC1;}
</style>
<g id="Logos">
	<path class="st0" d="M52.4,33.6V8.9h5.1v16.3c1.9-3.4,5.6-5.4,9.9-5.4c7,0,13.5,5,13.5,13.9C81,42,75,47.8,66.6,47.8
		C58.3,47.8,52.4,42.3,52.4,33.6z M75.8,33.8c0-5.4-3.7-9.3-9.2-9.3c-5.4,0-9.1,3.9-9.1,9.3s3.7,9.3,9.1,9.3
		C72.1,43.1,75.8,39.2,75.8,33.8L75.8,33.8z"/>
	<path class="st0" d="M86.1,20.5h5.1v26.6h-5.1V20.5z"/>
	<path class="st0" d="M96.8,42.9l17.1-17.8H97.6v-4.6h23.2v4.2l-17.1,17.8h17.7v4.6H96.8V42.9z"/>
	<path class="st0" d="M124.6,34c0-8.4,5.9-14.2,14.4-14.2c8.4,0,14.2,5.7,14.2,14.2v13.1h-4.7v-5.8c-1.8,4.3-5.7,6.5-10.4,6.5
		C131.1,47.8,124.6,42.8,124.6,34z M148.1,33.8c0-5.4-3.7-9.3-9.2-9.3c-5.5,0-9.2,3.9-9.2,9.3s3.7,9.3,9.2,9.3
		C144.4,43.1,148.1,39.2,148.1,33.8z"/>
	<path class="st0" d="M158.3,50.3h5.2c1.2,3.1,4.4,4.4,8.2,4.4c5.4,0,9.1-2.6,9.1-9.5v-3.1c-1.8,3.5-5.6,5.5-10,5.5
		c-6.9,0-13.5-4.7-13.5-13.8c0-8.1,5.9-14,14.3-14s14.2,5.7,14.2,14.2V45c0,10.2-6.3,14.2-14.1,14.2
		C165.3,59.2,160.1,56.5,158.3,50.3z M180.8,33.8c0-5.4-3.7-9.3-9.2-9.3c-5.5,0-9.2,3.9-9.2,9.3s3.7,9,9.2,9
		C177.2,42.8,180.8,39.2,180.8,33.8z"/>
	<path class="st0" d="M192.2,20.5h5.1v26.6h-5.1V20.5z"/>
	<polygon class="st1" points="23.1,10.2 23.1,28.4 7.7,18.6 	"/>
	<polygon class="st2" points="23.1,10.2 38.5,18.6 38.5,38.2 23.1,28.4 	"/>
	<polygon class="st3" points="7.7,18.6 38.5,38.2 23.1,46.5 7.7,38.2 	"/>
	<path class="st0" d="M39.1,17.4L23.8,8.9c-0.4-0.2-0.9-0.2-1.3,0L7,17.4c-0.4,0.2-0.7,0.7-0.7,1.2v19.6c0,0.5,0.3,1,0.7,1.2
		l15.4,8.3c0.4,0.2,0.9,0.2,1.3,0l15.4-8.3c0.5-0.2,0.7-0.7,0.7-1.2V18.6C39.9,18.1,39.6,17.6,39.1,17.4z M37.1,35.7l-12.6-8
		c0,0,0-0.1,0-0.1v-15l12.6,6.9L37.1,35.7z M21.7,25.9l-11.2-7.2l11.2-6.2V25.9z M23.1,44.9l-14-7.6V21.2l26.6,17L23.1,44.9z"/>
</g>
</svg>
