<?xml version="1.0" standalone="no"?>
<!DOCTYPE svg PUBLIC "-//W3C//DTD SVG 20010904//EN"
 "http://www.w3.org/TR/2001/REC-SVG-20010904/DTD/svg10.dtd">
<svg version="1.0" xmlns="http://www.w3.org/2000/svg"
 width="250.000000pt" height="250.000000pt" viewBox="0 0 250.000000 250.000000"
 preserveAspectRatio="xMidYMid meet">
<metadata>
Created by potrace 1.14, written by Peter Selinger 2001-2017
</metadata>
<g transform="translate(0.000000,250.000000) scale(0.100000,-0.100000)"
fill="#000000" stroke="none">
<path d="M1205 2375 c-53 -16 -874 -480 -900 -508 -47 -50 -53 -82 -55 -261
-9 -795 -8 -850 12 -894 11 -23 34 -53 52 -67 33 -27 745 -451 831 -494 74
-38 134 -34 227 16 40 22 89 49 108 59 19 11 37 22 40 25 3 3 19 12 35 21 17
8 48 25 70 38 22 12 78 44 126 70 243 136 398 226 430 251 63 50 71 84 74 339
6 399 6 764 1 787 -2 11 -11 34 -19 50 -28 53 6 31 -632 405 -126 75 -243 142
-260 151 -43 21 -94 26 -140 12z m232 -131 c69 -41 130 -74 135 -74 4 0 8 -4
8 -9 0 -5 6 -11 13 -13 7 -2 92 -50 190 -108 97 -58 185 -109 195 -115 9 -5
44 -25 77 -44 33 -19 73 -44 88 -55 60 -43 59 -33 56 -554 -2 -263 -7 -495
-12 -517 -10 -49 -33 -73 -117 -121 -36 -20 -144 -82 -240 -136 -189 -108
-196 -112 -404 -230 -80 -45 -154 -81 -174 -83 -40 -4 -73 13 -307 152 -91 54
-173 103 -183 108 -170 96 -405 242 -427 265 l-30 31 2 337 c3 704 2 686 27
722 15 23 79 65 221 145 110 62 301 169 424 239 225 127 267 146 309 138 12
-2 79 -38 149 -78z"/>
<path d="M701 1219 l1 -249 24 0 24 0 0 202 0 202 86 -149 c48 -83 92 -153 98
-157 17 -11 30 6 107 140 40 70 78 135 85 145 10 15 12 -17 12 -170 0 -103 1
-194 1 -201 1 -8 10 -12 24 -10 l22 3 0 240 c0 132 -3 243 -8 246 -24 17 -50
-15 -136 -166 -81 -142 -96 -162 -106 -147 -6 9 -49 82 -95 162 -45 80 -84
146 -86 148 -1 2 -14 5 -28 6 l-25 3 0 -248z"/>
<path d="M1320 1461 c-13 -5 -15 -42 -15 -248 l0 -243 27 0 27 0 0 168 c0 92
0 183 0 202 l1 35 27 -50 c70 -134 149 -260 162 -260 7 0 52 66 99 147 47 81
88 146 90 144 2 -2 4 -90 4 -195 l1 -191 23 0 24 0 0 244 c0 200 -3 245 -14
249 -8 3 -21 0 -29 -6 -14 -10 -129 -203 -174 -289 -19 -36 -29 -42 -37 -20
-16 42 -172 305 -186 312 -8 4 -22 5 -30 1z"/>
</g>
</svg>
